<?xml version="1.0" encoding="UTF-8" standalone="no"?>
<svg
   xmlns:dc="http://purl.org/dc/elements/1.1/"
   xmlns:cc="http://creativecommons.org/ns#"
   xmlns:rdf="http://www.w3.org/1999/02/22-rdf-syntax-ns#"
   xmlns:svg="http://www.w3.org/2000/svg"
   xmlns="http://www.w3.org/2000/svg"
   id="svg18605"
   height="429.6875"
   width="400"
   version="1.1">
  <defs
     id="defs18607" />
  <metadata
     id="metadata18610">
    <rdf:RDF>
      <cc:Work
         rdf:about="">
        <dc:format>image/svg+xml</dc:format>
        <dc:type
           rdf:resource="http://purl.org/dc/dcmitype/StillImage" />
        <dc:title></dc:title>
      </cc:Work>
    </rdf:RDF>
  </metadata>
  <g
     style="display:inline"
     id="layer3">
    <g
       id="g55945">
      <path
         style="display:inline;fill:#3ba0c3;fill-opacity:1;fill-rule:evenodd;stroke:none"
         id="path16724-6-3"
         d="m 230.125,101.3703 c -0.0582,2.12974 -0.1222,6.3818 -0.1874,8.8125 5.77354,2.18144 11.5455,4.68126 17.125,8.4375 9.14006,6.15328 18.17066,16.67694 20.3125,30.1875 2.59392,16.36232 -3.25166,32.38722 -12.375,42.5 -8.45822,9.37552 -18.41698,14.8433 -27.8125,19.375 -0.23834,9.01484 -0.50446,17.49454 -0.75,26.375 5.23272,3.0587 10.56076,6.4468 15.5625,11.1875 7.37098,6.9863 14.04748,17.16066 15.75,29.5 1.90308,13.79282 -2.98772,28.2016 -11.4375,36.5 -7.40932,7.27656 -15.33192,10.31514 -22.375,12.5625 -0.0416,1.34652 -0.0836,2.36098 -0.125,3.6875 3.15736,1.7593 5.51724,2.8679 9.9375,6 0.2259,0.16 0.4599,0.33678 0.6875,0.5 54.9553,-15.09536 95.3125,-65.37536 95.3125,-125.125 0,-44.9793 -22.8682,-84.58784 -57.625,-107.875 -4.5402,0.93282 -8.60408,0.9625 -12.75,0.9375 -10.98766,-0.0664 -21.32164,-1.7165 -29.25,-3.5625 z m -116.0625,13.25 c -26.89966,23.78024 -43.875,58.52298 -43.875,97.25 0,57.75176 37.7276,106.66042 89.875,123.5 -0.90726,-3.56424 -1.34588,-7.3012 -1.1875,-11.125 0.41522,-10.02456 4.58268,-19.948 10.75,-26.4375 1.79518,-1.88898 3.73694,-2.98666 5.625,-4.375 -0.20652,-7.1434 -0.42398,-14.38014 -0.625,-21.6875 -4.59636,-2.18552 -9.36966,-4.80972 -14.125,-8.25 -9.15332,-6.62204 -18.12792,-17.17938 -21.6875,-31 -4.30228,-16.70428 3.42252,-33.45958 13,-43.1875 6.2575,-6.3558 13.16118,-10.96758 20.125,-15.0625 -0.20408,-8.29456 -0.3893,-16.00456 -0.5625,-23.4375 -11.53542,-3.55948 -23.95018,-7.76006 -35.75,-14.9375 -8.14346,-4.9534 -16.16232,-11.461 -21.5625,-21.25 z" />
      <path
         style="display:inline;fill:#0067a9;fill-opacity:1;fill-rule:evenodd;stroke:none"
         d="M 253 19.371094 C 253.0322 19.944694 253.008 20.509694 253 20.996094 C 252.9486 24.334714 252.4193 26.304234 252 27.933594 C 251.38192 30.335394 250.85378 31.866274 250.3125 33.558594 C 250.4643 33.619394 250.6553 33.690294 250.8125 33.746094 C 253.04858 34.539914 254.97154 35.376414 256.75 36.183594 C 260.30694 37.797954 264.51726 39.803874 263.3125 39.308594 C 268.74242 41.540834 274.59474 44.753774 280.5625 49.933594 C 286.53026 55.113414 293.08136 62.545094 295.3125 73.808594 C 296.15944 78.084194 295.56646 83.556234 293.6875 88.246094 C 295.564 89.666974 297.44066 91.119074 299.25 92.621094 C 303.00366 95.737214 306.6185 99.046434 310.0625 102.49609 C 313.53136 105.97065 316.80784 109.58309 319.9375 113.37109 C 320.97414 114.62579 322.00242 115.89633 323 117.18359 C 324.00272 118.47747 324.97516 119.79525 325.9375 121.12109 L 364.625 98.746094 C 363.96118 97.785594 363.30516 96.819254 362.625 95.871094 C 362.21948 95.305954 361.78624 94.744314 361.375 94.183594 C 360.89754 93.532534 360.42264 92.891094 359.9375 92.246094 C 359.30312 91.402414 358.64734 90.579354 358 89.746094 C 357.8824 89.594694 357.74304 89.459554 357.625 89.308594 C 355.69912 86.845554 353.72462 84.364314 351.6875 81.996094 C 351.41782 81.682474 351.14658 81.370514 350.875 81.058594 C 350.10158 80.170554 349.35126 79.307714 348.5625 78.433594 C 348.10746 77.928934 347.64758 77.433574 347.1875 76.933594 C 345.63568 75.248774 344.04574 73.564154 342.4375 71.933594 C 341.4373 70.918834 340.39652 69.926934 339.375 68.933594 C 338.26056 67.850954 337.13934 66.740234 336 65.683594 C 335.77292 65.472794 335.54056 65.268354 335.3125 65.058594 C 333.94144 63.798714 332.53088 62.592794 331.125 61.371094 C 329.9085 60.313954 328.67948 59.274074 327.4375 58.246094 C 327.2441 58.085894 327.06908 57.905654 326.875 57.746094 C 325.3899 56.526214 323.89532 55.298614 322.375 54.121094 C 320.94748 53.014854 319.52036 51.939194 318.0625 50.871094 C 317.81878 50.692694 317.55706 50.548494 317.3125 50.371094 C 316.04666 49.452814 314.78786 48.572734 313.5 47.683594 C 309.14272 44.675274 304.65926 41.784134 300.0625 39.121094 C 299.79832 38.968094 299.51494 38.835414 299.25 38.683594 C 284.85394 30.433754 269.35302 23.873414 253 19.371094 z M 133.875 23.558594 C 122.22698 27.653334 111.05684 32.738134 100.5 38.808594 C 100.3132 38.915994 100.1239 39.013094 99.9375 39.121094 C 96.0422 41.375094 92.22386 43.743934 88.5 46.246094 C 87.97784 46.597574 87.45616 46.952334 86.9375 47.308594 C 86.3456 47.714494 85.7748 48.146554 85.1875 48.558594 C 85.0647 48.644794 84.93502 48.721994 84.8125 48.808594 C 83.7899 49.529474 82.75836 50.256714 81.75 50.996094 C 81.54706 51.145094 81.32736 51.283814 81.125 51.433594 C 79.83312 52.388414 78.58032 53.386254 77.3125 54.371094 C 75.84386 55.511914 74.37308 56.690734 72.9375 57.871094 C 71.73186 58.862394 70.55678 59.852414 69.375 60.871094 C 67.74246 62.278334 66.1484 63.725174 64.5625 65.183594 C 63.45566 66.201474 62.33358 67.203794 61.25 68.246094 C 60.69798 68.777094 60.1709 69.333834 59.625 69.871094 C 58.92422 70.561874 58.19058 71.232614 57.5 71.933594 C 57.17916 72.258794 56.88112 72.606214 56.5625 72.933594 C 56.4285 73.071394 56.32102 73.232914 56.1875 73.371094 C 54.75974 74.846554 53.3196 76.352254 51.9375 77.871094 C 51.51024 78.341434 51.04784 78.771694 50.625 79.246094 C 48.88688 81.196214 47.22426 83.166134 45.5625 85.183594 C 44.01098 87.064194 42.5455 88.995914 41.0625 90.933594 C 40.47596 91.700634 39.88814 92.470394 39.3125 93.246094 C 39.07368 93.567714 38.79942 93.860494 38.5625 94.183594 C 38.1554 94.739094 37.77648 95.311254 37.375 95.871094 C 36.69576 96.818234 36.038 97.786714 35.375 98.746094 L 74 121.12109 C 78.42576 115.01887 83.31688 109.26077 88.5625 103.87109 C 90.32002 102.06531 92.0947 100.27763 93.9375 98.558594 C 93.9591 98.538594 93.9786 98.515894 94 98.496094 C 95.81648 96.803514 97.66656 95.163694 99.5625 93.558594 C 102.7158 90.889014 106.01344 88.356594 109.375 85.933594 C 109.77082 83.355274 110.36554 80.806854 111.1875 78.308594 C 114.30772 68.825114 119.7767 58.801134 129 51.621094 C 132.78496 48.674634 137.0354 46.481214 141.5625 44.683594 C 140.19922 39.328194 138.60248 34.534654 137.0625 30.621094 C 135.90892 27.689494 134.8135 25.432694 133.875 23.558594 z M 14.3125 137.93359 C 13.5562 139.81957 12.82468 141.70717 12.125 143.62109 C 12.0116 143.93125 11.92438 144.24773 11.8125 144.55859 C 11.0102 146.78783 10.22428 149.04335 9.5 151.30859 C 9.3984 151.62595 9.28748 151.92803 9.1875 152.24609 C 7.85884 156.47385 6.67504 160.77721 5.625 165.12109 C 5.5896 165.26789 5.5352 165.41171 5.5 165.55859 C 4.97674 167.74519 4.5134 169.90717 4.0625 172.12109 C 3.58922 174.44491 3.14218 176.83119 2.75 179.18359 C 2.744 179.22379 2.756 179.26839 2.75 179.30859 C 1.95506 184.09491 1.32552 188.91373 0.875 193.80859 L 0.8125 193.80859 C 0.25682 199.88021 1.4802974e-16 206.03013 0 212.24609 C 0 238.51271 5.09512 263.63593 14.3125 286.62109 L 53.3125 264.12109 C 47.57612 247.90389 44.4375 230.42011 44.4375 212.24609 C 44.4375 205.99913 44.8455 199.86323 45.5625 193.80859 C 45.5895 193.58029 45.597 193.34907 45.625 193.12109 C 45.7738 191.91107 45.9486 190.69735 46.125 189.49609 C 46.33542 188.06327 46.5639 186.60361 46.8125 185.18359 C 47.05942 183.77739 47.34052 182.38903 47.625 180.99609 C 48.1495 178.42789 48.7255 175.89157 49.375 173.37109 C 49.67568 172.19945 49.98528 171.03171 50.3125 169.87109 C 50.4421 169.41289 50.55386 168.95257 50.6875 168.49609 C 51.08522 167.13397 51.5034 165.77955 51.9375 164.43359 C 52.34638 163.16751 52.80976 161.93525 53.25 160.68359 C 53.2784 160.60279 53.2843 160.51419 53.3125 160.43359 L 14.3125 137.93359 z M 385.6875 137.93359 L 346.6875 160.43359 C 346.7035 160.47739 346.7348 160.51479 346.75 160.55859 C 347.31176 162.15039 347.80164 163.75605 348.3125 165.37109 C 348.7851 166.86517 349.25924 168.35791 349.6875 169.87109 C 350.20812 171.71175 350.67116 173.56565 351.125 175.43359 C 351.2264 175.85081 351.33938 176.26507 351.4375 176.68359 C 351.73908 177.97151 352.04312 179.25851 352.3125 180.55859 C 352.3949 180.95629 352.4831 181.34729 352.5625 181.74609 C 352.77362 182.80615 352.99808 183.86589 353.1875 184.93359 C 353.2355 185.20399 353.2659 185.47521 353.3125 185.74609 C 353.58924 187.35535 353.83572 188.99535 354.0625 190.62109 C 354.0805 190.74709 354.1078 190.87005 354.125 190.99609 C 354.41954 193.14723 354.66902 195.31807 354.875 197.49609 C 354.883 197.57889 354.867 197.66329 354.875 197.74609 C 354.8962 197.97447 354.9175 198.20493 354.9375 198.43359 C 355.0331 199.51327 355.1139 200.59777 355.1875 201.68359 L 355.125 201.68359 C 355.36028 205.17885 355.5625 208.69143 355.5625 212.24609 C 355.5625 230.42011 352.4239 247.90389 346.6875 264.12109 L 348.84961 265.36914 A 65 65 0 0 1 386.56836 284.3457 C 395.2211 261.97975 400 237.65129 400 212.24609 C 400 208.69651 399.8706 205.18781 399.6875 201.68359 C 399.24548 193.27535 398.25848 184.97541 396.8125 176.87109 C 396.3305 174.16965 395.83918 171.53387 395.25 168.87109 C 394.67066 166.25271 394.05588 163.63723 393.375 161.05859 C 393.363 161.01439 393.3241 160.97779 393.3125 160.93359 C 392.61834 158.31193 391.85946 155.69919 391.0625 153.12109 C 390.9731 152.83183 390.9031 152.53477 390.8125 152.24609 C 390.09484 149.96171 389.29686 147.68161 388.5 145.43359 C 387.7754 143.38941 387.03888 141.38385 386.25 139.37109 C 386.063 138.89445 385.878 138.40843 385.6875 137.93359 z M 74 303.49609 L 35.375 325.80859 C 61.31944 363.34819 99.77748 391.58605 144.6875 404.49609 C 148.59272 405.61871 152.50086 406.60911 156.5 407.49609 C 158.46002 407.93081 160.45634 408.36939 162.4375 408.74609 C 162.5219 408.76209 162.6031 408.79259 162.6875 408.80859 C 162.31334 399.57543 162.5092 391.89611 162.625 386.62109 L 138.875 375.30859 L 161.875 363.05859 C 160.95843 362.82165 160.03173 362.61739 159.125 362.37109 C 158.72835 362.26249 158.33288 362.17015 157.9375 362.05859 C 156.8261 361.74723 155.72619 361.39387 154.625 361.05859 C 153.13472 360.60485 151.65849 360.11801 150.1875 359.62109 C 148.69749 359.11775 147.21943 358.60547 145.75 358.05859 C 144.29876 357.51849 142.86793 356.95291 141.4375 356.37109 C 114.30289 345.33417 90.96862 326.88847 74 303.49609 z M 277.40234 347.17578 C 277.07988 347.3646 276.76348 347.56162 276.4375 347.74609 C 276.2663 347.84289 276.109 347.96241 275.9375 348.05859 C 275.6686 348.20939 275.39488 348.34683 275.125 348.49609 C 274.22286 348.99507 273.28792 349.45215 272.375 349.93359 C 272.1848 350.03379 272.00314 350.14661 271.8125 350.24609 C 270.81496 350.76691 269.82252 351.30893 268.8125 351.80859 C 268.4624 351.98159 268.1016 352.13807 267.75 352.30859 C 266.8973 352.72235 266.04876 353.09755 265.1875 353.49609 C 264.6633 353.73861 264.15234 354.00925 263.625 354.24609 C 262.92256 354.56169 262.2079 354.87815 261.5 355.18359 C 260.8138 355.47945 260.12876 355.77237 259.4375 356.05859 C 258.87904 356.29007 258.31172 356.52097 257.75 356.74609 C 256.89816 357.08707 256.0467 357.41983 255.1875 357.74609 C 254.78946 357.89729 254.39958 358.03549 254 358.18359 C 252.95674 358.57009 251.86618 358.94399 250.8125 359.30859 C 250.59986 359.38219 250.40054 359.48599 250.1875 359.55859 C 250.1695 359.56459 250.1438 359.55259 250.125 359.55859 C 250.68987 362.89307 250.70463 366.52061 249.75 370.18359 C 246.52943 382.54089 237.40253 389.86223 228.625 394.05859 C 228.41319 398.73915 228.17641 404.25199 227.875 410.30859 C 228.64701 410.20199 229.4233 410.11179 230.1875 409.99609 C 230.58553 409.93589 230.97777 409.87099 231.375 409.80859 C 231.77392 409.74579 232.16438 409.68609 232.5625 409.62109 C 236.24146 409.01871 239.89137 408.29645 243.5 407.49609 C 245.49955 407.05261 247.46092 406.56149 249.4375 406.05859 C 251.41408 405.55569 253.3599 405.05739 255.3125 404.49609 C 257.22082 403.94751 259.11551 403.41203 261 402.80859 C 261.0442 402.79459 261.0808 402.75989 261.125 402.74609 C 263.05263 402.12735 264.97329 401.42127 266.875 400.74609 C 268.04321 400.33133 269.21687 399.93185 270.375 399.49609 C 271.62303 399.02637 272.88883 398.55257 274.125 398.05859 C 275.47052 397.52101 276.79405 396.93687 278.125 396.37109 C 286.89736 392.64193 295.3499 388.30578 303.42969 383.41406 A 65 65 0 0 1 277.40234 347.17578 z "
         id="rect18263-6" />
      <path
         style="display:inline;fill:#003f97;fill-opacity:1;stroke:none"
         id="path18007-6-3-6"
         d="m 176.37506,0 c -0.71868,3.6e-4 -0.97532,0.39218 -0.6875,1.3125 0.67528,2.15918 9.4092,34.72146 12.375,64.1875 -20.96436,1.74832 -43.81974,6.7725 -48.5625,21.1875 -10.31038,31.33706 22.924,40.61446 51.5625,49.3125 0.32062,14.50666 0.72624,31.2495 1.1875,49.6875 -19.58858,10.29708 -38.96802,22.76604 -34.0625,41.8125 4.58828,17.81468 20.82154,24.71092 36.0625,30.9375 0.4418,15.85416 0.84948,31.28734 1.3125,46.3125 -8.71546,3.20164 -16.19052,8.314 -16.6875,20.3125 -0.55034,13.2866 9.6849,18.93046 18.125,23.8125 0.29502,8.30602 0.59588,15.64364 0.875,22.5625 -10.5495,4.81658 -25.6875,5.375 -25.6875,5.375 0,0 13.5103,1.30216 25.875,-1.3125 0.049,1.17792 0.0768,2.753 0.125,3.875 1.6571,-1.13014 3.10512,-2.39132 4.125,-3.875 0.012,-0.32882 0.0498,-0.79146 0.0624,-1.125 7.23116,-2.20274 13.42404,-6.04612 15.1875,-12.8125 2.27098,-8.71374 -3.5218,-13.4613 -10.5,-17.875 -0.1404,4.27448 -0.23716,8.63866 -0.375,12.625 1.0147,1.61576 1.4032,3.39094 0.875,5.5625 -0.67072,2.7574 -2.50212,5.0362 -5,6.875 0.50068,-13.67296 1.01836,-29.90378 1.5625,-47.6875 -2.8111,0.74094 -5.48088,1.39982 -7.9375,2.1875 0.1568,4.82692 0.28102,9.08146 0.4375,13.6875 -4.58062,-3.51374 -8.125,-7.73486 -8.125,-14 0,-17.37138 54.44142,-6.17092 49.4375,-42.4375 -1.97728,-14.33064 -14.60964,-22.9642 -28.0625,-29.9375 -0.1318,4.93842 -0.24208,9.78722 -0.375,14.6875 8.82804,4.7865 15.091,10.9397 14.75,21.6875 -0.30432,9.59122 -9.5822,12.18138 -19.625,15 0.91246,-30.97858 1.82934,-62.8012 2.6875,-95.5 -4.91334,2.193 -9.81954,4.26314 -14.375,6.375 0.25708,9.79416 0.54114,19.8337 0.8125,29.8125 -12.2692,-6.1459 -21.6102,-12.25476 -18.875,-22.125 6.6719,-24.07612 79.7555,-24.37212 72.75,-68.5625 -2.2735,-14.34106 -17.54316,-21.36746 -34.4375,-26.4375 -0.1536,5.92278 -0.26668,11.43446 -0.4375,18.0625 9.0984,4.07228 15.26806,8.96196 15.1875,16.25 -0.069,6.24048 -8.68526,11.79114 -19.8125,17.6875 0.93606,-35.87594 1.8285,-70.64562 2.3125,-87.6875 -2.08052,-0.0604 -4.23106,-0.0952 -6.4375,-0.0624 -4.51374,0.067 -9.22622,0.35756 -13.8125,0.9375 0.012,4.2469 0.21994,15.04916 0.5,28.75 -17.91308,-4.9038 -31.879,-10.42718 -26.5,-23.875 7.78914,-19.47328 56.42806,-17.11012 68.4375,-14.0625 12.0094,3.04762 42.67266,2.47082 35,-6.0625 -0.6672,-1.21904 -14.0781,-9.13218 -20.75,-11.875 -2.50198,-1.02858 -5.2087,-1.31604 -8.0625,-1.1875 -4.75632,0.2143 -9.76758,1.49106 -13.9375,2.0625 -1.6466,0.22564 -7.19774,0.0726 -14.6875,0.125 -0.85084,-22.4512 3.29068,-43.08 1,-46.0625 -2.7577,-3.59054 0.31878,-8.35952 -7.6875,-7.75 -6.7553,0.5143 -23.24416,-10.75188 -27.125,-10.75 z m 25.5625,383.5 c -1.12804,0.45698 -2.29952,0.8904 -3.5,1.25 0.6975,15.30886 -0.78438,44.82974 -0.3125,44.9375 3.05918,-4.53674 3.13344,-30.0253 3.8125,-46.1875 z" />
      <path
         style="opacity:1;fill:#3ba0c3;fill-opacity:1;fill-rule:evenodd;stroke:none;stroke-width:1.333902;stroke-linecap:round;stroke-linejoin:round;stroke-miterlimit:4;stroke-dasharray:none;stroke-opacity:1"
         d="m 340.58036,289.69176 a 40.017344,40.01677 0 0 0 -28.88181,11.71798 40.017344,40.01677 0 0 0 -2.4329,53.88053 l 25.94023,-25.93984 a 29.103241,29.103107 0 0 0 -16.15472,8.15115 l -5.14713,-5.14419 a 36.379052,36.378882 0 0 1 25.19274,-10.65221 36.379052,36.378882 0 0 1 3.62658,0.12785 l 6.32661,-6.32652 a 43.654861,43.654658 0 0 0 -40.2902,11.70662 l -5.14427,-5.14421 a 50.930673,50.930435 0 0 1 35.27096,-14.91248 50.930673,50.930435 0 0 1 16.10359,2.41008 l 10.59833,-10.59818 a 40.017344,40.01677 0 0 0 -25.00801,-9.27664 z m 29.20016,13.31524 -2.86487,2.86483 -6.00829,6.0082 -5.52228,5.52222 -5.72123,5.72113 -6.15038,6.15032 -7.26736,7.26725 -9.07779,9.07768 -5.18692,5.18682 -8.66284,8.6627 a 40.017344,40.01677 0 0 0 54.97268,-1.4665 40.017344,40.01677 0 0 0 1.48928,-54.99465 z m -3.52424,11.75493 a 50.930673,50.930435 0 0 1 9.38473,7.30704 l -5.14425,5.14421 a 43.654861,43.654658 0 0 0 -9.54107,-7.15072 z m -10.67225,10.67209 a 36.379052,36.378882 0 0 1 9.76845,6.92337 l -5.14429,5.14419 a 29.103241,29.103107 0 0 0 -10.14927,-6.54252 z m -11.33728,11.33713 a 21.827432,21.827331 0 0 1 10.81717,5.87463 l -5.14427,5.14705 a 14.55162,14.551552 0 0 0 -12.64185,-4.05284 z m -4.72366,14.0343 a 7.2758103,7.2757764 0 0 1 5.24943,2.13158 l -5.14427,5.14419 -5.14426,-5.14419 a 7.2758103,7.2757764 0 0 1 5.0391,-2.13158 z"
         id="path55880" />
    </g>
  </g>
</svg>
