<?xml version="1.0" encoding="UTF-8" standalone="no"?>
<svg
   xmlns:dc="http://purl.org/dc/elements/1.1/"
   xmlns:cc="http://creativecommons.org/ns#"
   xmlns:rdf="http://www.w3.org/1999/02/22-rdf-syntax-ns#"
   xmlns:svg="http://www.w3.org/2000/svg"
   xmlns="http://www.w3.org/2000/svg"
   xmlns:sodipodi="http://sodipodi.sourceforge.net/DTD/sodipodi-0.dtd"
   xmlns:inkscape="http://www.inkscape.org/namespaces/inkscape"
   id="svg18605"
   height="1080"
   width="720"
   version="1.1"
   sodipodi:docname="MedStoreLogo.svg"
   inkscape:export-filename="C:\Users\geoff\Source\Repos\kiwix-js-windows-wikimed\images\WikiMed_Store_Logo_1440x2160.png"
   inkscape:export-xdpi="192"
   inkscape:export-ydpi="192"
   inkscape:version="0.92.2 (5c3e80d, 2017-08-06)">
  <sodipodi:namedview
     pagecolor="#ffffff"
     bordercolor="#666666"
     borderopacity="1"
     objecttolerance="10"
     gridtolerance="10"
     guidetolerance="10"
     inkscape:pageopacity="0"
     inkscape:pageshadow="2"
     inkscape:window-width="3000"
     inkscape:window-height="1875"
     id="namedview824"
     showgrid="false"
     inkscape:zoom="2"
     inkscape:cx="480"
     inkscape:cy="161.5"
     inkscape:window-x="-13"
     inkscape:window-y="-13"
     inkscape:window-maximized="1"
     inkscape:current-layer="svg18605"
     width="720px" />
  <defs
     id="defs18607" />
  <metadata
     id="metadata18610">
    <rdf:RDF>
      <cc:Work
         rdf:about="">
        <dc:format>image/svg+xml</dc:format>
        <dc:type
           rdf:resource="http://purl.org/dc/dcmitype/StillImage" />
        <dc:title></dc:title>
      </cc:Work>
    </rdf:RDF>
  </metadata>
  <g
     style="display:inline;stroke-width:0.66666692"
     id="layer3"
     transform="matrix(1.4999994,0,0,1.4999994,54.500116,24.89075)">
    <g
       id="g55945"
       style="stroke-width:0.66666692">
      <path
         style="display:inline;fill:#3ba0c3;fill-opacity:1;fill-rule:evenodd;stroke:none;stroke-width:0.66666692"
         id="path16724-6-3"
         d="m 230.125,101.3703 c -0.0582,2.12974 -0.1222,6.3818 -0.1874,8.8125 5.77354,2.18144 11.5455,4.68126 17.125,8.4375 9.14006,6.15328 18.17066,16.67694 20.3125,30.1875 2.59392,16.36232 -3.25166,32.38722 -12.375,42.5 -8.45822,9.37552 -18.41698,14.8433 -27.8125,19.375 -0.23834,9.01484 -0.50446,17.49454 -0.75,26.375 5.23272,3.0587 10.56076,6.4468 15.5625,11.1875 7.37098,6.9863 14.04748,17.16066 15.75,29.5 1.90308,13.79282 -2.98772,28.2016 -11.4375,36.5 -7.40932,7.27656 -15.33192,10.31514 -22.375,12.5625 -0.0416,1.34652 -0.0836,2.36098 -0.125,3.6875 3.15736,1.7593 5.51724,2.8679 9.9375,6 0.2259,0.16 0.4599,0.33678 0.6875,0.5 54.9553,-15.09536 95.3125,-65.37536 95.3125,-125.125 0,-44.9793 -22.8682,-84.58784 -57.625,-107.875 -4.5402,0.93282 -8.60408,0.9625 -12.75,0.9375 -10.98766,-0.0664 -21.32164,-1.7165 -29.25,-3.5625 z m -116.0625,13.25 c -26.89966,23.78024 -43.875,58.52298 -43.875,97.25 0,57.75176 37.7276,106.66042 89.875,123.5 -0.90726,-3.56424 -1.34588,-7.3012 -1.1875,-11.125 0.41522,-10.02456 4.58268,-19.948 10.75,-26.4375 1.79518,-1.88898 3.73694,-2.98666 5.625,-4.375 -0.20652,-7.1434 -0.42398,-14.38014 -0.625,-21.6875 -4.59636,-2.18552 -9.36966,-4.80972 -14.125,-8.25 -9.15332,-6.62204 -18.12792,-17.17938 -21.6875,-31 -4.30228,-16.70428 3.42252,-33.45958 13,-43.1875 6.2575,-6.3558 13.16118,-10.96758 20.125,-15.0625 -0.20408,-8.29456 -0.3893,-16.00456 -0.5625,-23.4375 -11.53542,-3.55948 -23.95018,-7.76006 -35.75,-14.9375 -8.14346,-4.9534 -16.16232,-11.461 -21.5625,-21.25 z"
         inkscape:connector-curvature="0" />
      <path
         style="display:inline;fill:#0067a9;fill-opacity:1;fill-rule:evenodd;stroke:none;stroke-width:0.66666692"
         d="m 253,19.371094 c 0.0322,0.5736 0.008,1.1386 0,1.625 -0.0514,3.33862 -0.5807,5.30814 -1,6.9375 -0.61808,2.4018 -1.14622,3.93268 -1.6875,5.625 0.1518,0.0608 0.3428,0.1317 0.5,0.1875 2.23608,0.79382 4.15904,1.63032 5.9375,2.4375 3.55694,1.61436 7.76726,3.62028 6.5625,3.125 5.42992,2.23224 11.28224,5.44518 17.25,10.625 5.96776,5.17982 12.51886,12.6115 14.75,23.875 0.84694,4.2756 0.25396,9.74764 -1.625,14.4375 1.8765,1.42088 3.75316,2.87298 5.5625,4.375 3.75366,3.11612 7.3685,6.42534 10.8125,9.874996 3.46886,3.47456 6.74534,7.087 9.875,10.875 1.03664,1.2547 2.06492,2.52524 3.0625,3.8125 1.00272,1.29388 1.97516,2.61166 2.9375,3.9375 L 364.625,98.746094 c -0.66382,-0.9605 -1.31984,-1.92684 -2,-2.875 -0.40552,-0.56514 -0.83876,-1.12678 -1.25,-1.6875 -0.47746,-0.65106 -0.95236,-1.2925 -1.4375,-1.9375 -0.63438,-0.84368 -1.29016,-1.66674 -1.9375,-2.5 -0.1176,-0.1514 -0.25696,-0.28654 -0.375,-0.4375 -1.92588,-2.46304 -3.90038,-4.94428 -5.9375,-7.3125 -0.26968,-0.31362 -0.54092,-0.62558 -0.8125,-0.9375 -0.77342,-0.88804 -1.52374,-1.75088 -2.3125,-2.625 -0.45504,-0.50466 -0.91492,-1.00002 -1.375,-1.5 -1.55182,-1.68482 -3.14176,-3.36944 -4.75,-5 -1.0002,-1.01476 -2.04098,-2.00666 -3.0625,-3 -1.11444,-1.08264 -2.23566,-2.19336 -3.375,-3.25 -0.22708,-0.2108 -0.45944,-0.41524 -0.6875,-0.625 -1.37106,-1.25988 -2.78162,-2.4658 -4.1875,-3.6875 -1.2165,-1.05714 -2.44552,-2.09702 -3.6875,-3.125 -0.1934,-0.1602 -0.36842,-0.34044 -0.5625,-0.5 -1.4851,-1.21988 -2.97968,-2.44748 -4.5,-3.625 -1.42752,-1.10624 -2.85464,-2.1819 -4.3125,-3.25 -0.24372,-0.1784 -0.50544,-0.3226 -0.75,-0.5 -1.26584,-0.91828 -2.52464,-1.79836 -3.8125,-2.6875 -4.35728,-3.00832 -8.84074,-5.89946 -13.4375,-8.5625 -0.26418,-0.153 -0.54756,-0.28568 -0.8125,-0.4375 -14.39606,-8.24984 -29.89698,-14.81018 -46.25,-19.3125 z m -119.125,4.1875 c -11.64802,4.09474 -22.81816,9.17954 -33.375,15.25 -0.1868,0.1074 -0.3761,0.2045 -0.5625,0.3125 -3.8953,2.254 -7.71364,4.62284 -11.4375,7.125 -0.52216,0.35148 -1.04384,0.70624 -1.5625,1.0625 -0.5919,0.4059 -1.1627,0.83796 -1.75,1.25 -0.1228,0.0862 -0.25248,0.1634 -0.375,0.25 -1.0226,0.72088 -2.05414,1.44812 -3.0625,2.1875 -0.20294,0.149 -0.42264,0.28772 -0.625,0.4375 -1.29188,0.95482 -2.54468,1.95266 -3.8125,2.9375 -1.46864,1.14082 -2.93942,2.31964 -4.375,3.5 -1.20564,0.9913 -2.38072,1.98132 -3.5625,3 -1.63254,1.40724 -3.2266,2.85408 -4.8125,4.3125 -1.10684,1.01788 -2.22892,2.0202 -3.3125,3.0625 -0.55202,0.531 -1.0791,1.08774 -1.625,1.625 -0.70078,0.69078 -1.43442,1.36152 -2.125,2.0625 -0.32084,0.3252 -0.61888,0.67262 -0.9375,1 -0.134,0.1378 -0.24148,0.29932 -0.375,0.4375 -1.42776,1.47546 -2.8679,2.98116 -4.25,4.5 -0.42726,0.47034 -0.88966,0.9006 -1.3125,1.375 -1.73812,1.95012 -3.40074,3.92004 -5.0625,5.9375 -1.55152,1.8806 -3.017,3.81232 -4.5,5.75 -0.58654,0.76704 -1.17436,1.5368 -1.75,2.3125 -0.23882,0.32162 -0.51308,0.6144 -0.75,0.9375 -0.4071,0.5555 -0.78602,1.12766 -1.1875,1.6875 -0.67924,0.94714 -1.337,1.91562 -2,2.875 L 74,121.12109 c 4.42576,-6.10222 9.31688,-11.86032 14.5625,-17.25 1.75752,-1.80578 3.5322,-3.59346 5.375,-5.312496 0.0216,-0.02 0.0411,-0.0427 0.0625,-0.0625 1.81648,-1.69258 3.66656,-3.3324 5.5625,-4.9375 3.1533,-2.66958 6.45094,-5.202 9.8125,-7.625 0.39582,-2.57832 0.99054,-5.12674 1.8125,-7.625 3.12022,-9.48348 8.5892,-19.50746 17.8125,-26.6875 3.78496,-2.94646 8.0354,-5.13988 12.5625,-6.9375 -1.36328,-5.3554 -2.96002,-10.14894 -4.5,-14.0625 -1.15358,-2.9316 -2.249,-5.1884 -3.1875,-7.0625 z M 14.3125,137.93359 c -0.7563,1.88598 -1.48782,3.77358 -2.1875,5.6875 -0.1134,0.31016 -0.20062,0.62664 -0.3125,0.9375 -0.8023,2.22924 -1.58822,4.48476 -2.3125,6.75 -0.1016,0.31736 -0.21252,0.61944 -0.3125,0.9375 -1.32866,4.22776 -2.51246,8.53112 -3.5625,12.875 -0.0354,0.1468 -0.0898,0.29062 -0.125,0.4375 -0.52326,2.1866 -0.9866,4.34858 -1.4375,6.5625 -0.47328,2.32382 -0.92032,4.7101 -1.3125,7.0625 -0.006,0.0402 0.006,0.0848 0,0.125 -0.79494,4.78632 -1.42448,9.60514 -1.875,14.5 H 0.8125 C 0.25682,199.88021 0,206.03013 0,212.24609 c 0,26.26662 5.09512,51.38984 14.3125,74.375 l 39,-22.5 c -5.73638,-16.2172 -8.875,-33.70098 -8.875,-51.875 0,-6.24696 0.408,-12.38286 1.125,-18.4375 0.027,-0.2283 0.0345,-0.45952 0.0625,-0.6875 0.1488,-1.21002 0.3236,-2.42374 0.5,-3.625 0.21042,-1.43282 0.4389,-2.89248 0.6875,-4.3125 0.24692,-1.4062 0.52802,-2.79456 0.8125,-4.1875 0.5245,-2.5682 1.1005,-5.10452 1.75,-7.625 0.30068,-1.17164 0.61028,-2.33938 0.9375,-3.5 0.1296,-0.4582 0.24136,-0.91852 0.375,-1.375 0.39772,-1.36212 0.8159,-2.71654 1.25,-4.0625 0.40888,-1.26608 0.87226,-2.49834 1.3125,-3.75 0.0284,-0.0808 0.0343,-0.1694 0.0625,-0.25 z m 371.375,0 -39,22.5 c 0.016,0.0438 0.0473,0.0812 0.0625,0.125 0.56176,1.5918 1.05164,3.19746 1.5625,4.8125 0.4726,1.49408 0.94674,2.98682 1.375,4.5 0.52062,1.84066 0.98366,3.69456 1.4375,5.5625 0.1014,0.41722 0.21438,0.83148 0.3125,1.25 0.30158,1.28792 0.60562,2.57492 0.875,3.875 0.0824,0.3977 0.1706,0.7887 0.25,1.1875 0.21112,1.06006 0.43558,2.1198 0.625,3.1875 0.048,0.2704 0.0784,0.54162 0.125,0.8125 0.27674,1.60926 0.52322,3.24926 0.75,4.875 0.018,0.126 0.0453,0.24896 0.0625,0.375 0.29454,2.15114 0.54402,4.32198 0.75,6.5 0.008,0.0828 -0.008,0.1672 0,0.25 0.0212,0.22838 0.0425,0.45884 0.0625,0.6875 0.0956,1.07968 0.1764,2.16418 0.25,3.25 h -0.0625 c 0.23528,3.49526 0.4375,7.00784 0.4375,10.5625 0,18.17402 -3.1386,35.6578 -8.875,51.875 l 2.16211,1.24805 a 65,65 0 0 1 37.71875,18.97656 C 395.2211,261.97975 400,237.65129 400,212.24609 c 0,-3.54958 -0.1294,-7.05828 -0.3125,-10.5625 -0.44202,-8.40824 -1.42902,-16.70818 -2.875,-24.8125 -0.482,-2.70144 -0.97332,-5.33722 -1.5625,-8 -0.57934,-2.61838 -1.19412,-5.23386 -1.875,-7.8125 -0.012,-0.0442 -0.0509,-0.0808 -0.0625,-0.125 -0.69416,-2.62166 -1.45304,-5.2344 -2.25,-7.8125 -0.0894,-0.28926 -0.1594,-0.58632 -0.25,-0.875 -0.71766,-2.28438 -1.51564,-4.56448 -2.3125,-6.8125 -0.7246,-2.04418 -1.46112,-4.04974 -2.25,-6.0625 -0.187,-0.47664 -0.372,-0.96266 -0.5625,-1.4375 z M 74,303.49609 35.375,325.80859 c 25.94444,37.5396 64.40248,65.77746 109.3125,78.6875 3.90522,1.12262 7.81336,2.11302 11.8125,3 1.96002,0.43472 3.95634,0.8733 5.9375,1.25 0.0844,0.016 0.1656,0.0465 0.25,0.0625 -0.37416,-9.23316 -0.1783,-16.91248 -0.0625,-22.1875 l -23.75,-11.3125 23,-12.25 c -0.91657,-0.23694 -1.84327,-0.4412 -2.75,-0.6875 -0.39665,-0.1086 -0.79212,-0.20094 -1.1875,-0.3125 -1.1114,-0.31136 -2.21131,-0.66472 -3.3125,-1 -1.49028,-0.45374 -2.96651,-0.94058 -4.4375,-1.4375 -1.49001,-0.50334 -2.96807,-1.01562 -4.4375,-1.5625 -1.45124,-0.5401 -2.88207,-1.10568 -4.3125,-1.6875 C 114.30289,345.33417 90.96862,326.88847 74,303.49609 Z m 203.40234,43.67969 c -0.32246,0.18882 -0.63886,0.38584 -0.96484,0.57031 -0.1712,0.0968 -0.3285,0.21632 -0.5,0.3125 -0.2689,0.1508 -0.54262,0.28824 -0.8125,0.4375 -0.90214,0.49898 -1.83708,0.95606 -2.75,1.4375 -0.1902,0.1002 -0.37186,0.21302 -0.5625,0.3125 -0.99754,0.52082 -1.98998,1.06284 -3,1.5625 -0.3501,0.173 -0.7109,0.32948 -1.0625,0.5 -0.8527,0.41376 -1.70124,0.78896 -2.5625,1.1875 -0.5242,0.24252 -1.03516,0.51316 -1.5625,0.75 -0.70244,0.3156 -1.4171,0.63206 -2.125,0.9375 -0.6862,0.29586 -1.37124,0.58878 -2.0625,0.875 -0.55846,0.23148 -1.12578,0.46238 -1.6875,0.6875 -0.85184,0.34098 -1.7033,0.67374 -2.5625,1 -0.39804,0.1512 -0.78792,0.2894 -1.1875,0.4375 -1.04326,0.3865 -2.13382,0.7604 -3.1875,1.125 -0.21264,0.0736 -0.41196,0.1774 -0.625,0.25 -0.018,0.006 -0.0437,-0.006 -0.0625,0 0.56487,3.33448 0.57963,6.96202 -0.375,10.625 -3.22057,12.3573 -12.34747,19.67864 -21.125,23.875 -0.21181,4.68056 -0.44859,10.1934 -0.75,16.25 0.77201,-0.1066 1.5483,-0.1968 2.3125,-0.3125 0.39803,-0.0602 0.79027,-0.1251 1.1875,-0.1875 0.39892,-0.0628 0.78938,-0.1225 1.1875,-0.1875 3.67896,-0.60238 7.32887,-1.32464 10.9375,-2.125 1.99955,-0.44348 3.96092,-0.9346 5.9375,-1.4375 1.97658,-0.5029 3.9224,-1.0012 5.875,-1.5625 1.90832,-0.54858 3.80301,-1.08406 5.6875,-1.6875 0.0442,-0.014 0.0808,-0.0487 0.125,-0.0625 1.92763,-0.61874 3.84829,-1.32482 5.75,-2 1.16821,-0.41476 2.34187,-0.81424 3.5,-1.25 1.24803,-0.46972 2.51383,-0.94352 3.75,-1.4375 1.34552,-0.53758 2.66905,-1.12172 4,-1.6875 8.77236,-3.72916 17.2249,-8.06531 25.30469,-12.95703 a 65,65 0 0 1 -26.02735,-36.23828 z"
         id="rect18263-6"
         inkscape:connector-curvature="0" />
      <path
         style="display:inline;fill:#003f97;fill-opacity:1;stroke:none;stroke-width:0.66666692"
         id="path18007-6-3-6"
         d="m 176.37506,0 c -0.71868,3.6e-4 -0.97532,0.39218 -0.6875,1.3125 0.67528,2.15918 9.4092,34.72146 12.375,64.1875 -20.96436,1.74832 -43.81974,6.7725 -48.5625,21.1875 -10.31038,31.33706 22.924,40.61446 51.5625,49.3125 0.32062,14.50666 0.72624,31.2495 1.1875,49.6875 -19.58858,10.29708 -38.96802,22.76604 -34.0625,41.8125 4.58828,17.81468 20.82154,24.71092 36.0625,30.9375 0.4418,15.85416 0.84948,31.28734 1.3125,46.3125 -8.71546,3.20164 -16.19052,8.314 -16.6875,20.3125 -0.55034,13.2866 9.6849,18.93046 18.125,23.8125 0.29502,8.30602 0.59588,15.64364 0.875,22.5625 -10.5495,4.81658 -25.6875,5.375 -25.6875,5.375 0,0 13.5103,1.30216 25.875,-1.3125 0.049,1.17792 0.0768,2.753 0.125,3.875 1.6571,-1.13014 3.10512,-2.39132 4.125,-3.875 0.012,-0.32882 0.0498,-0.79146 0.0624,-1.125 7.23116,-2.20274 13.42404,-6.04612 15.1875,-12.8125 2.27098,-8.71374 -3.5218,-13.4613 -10.5,-17.875 -0.1404,4.27448 -0.23716,8.63866 -0.375,12.625 1.0147,1.61576 1.4032,3.39094 0.875,5.5625 -0.67072,2.7574 -2.50212,5.0362 -5,6.875 0.50068,-13.67296 1.01836,-29.90378 1.5625,-47.6875 -2.8111,0.74094 -5.48088,1.39982 -7.9375,2.1875 0.1568,4.82692 0.28102,9.08146 0.4375,13.6875 -4.58062,-3.51374 -8.125,-7.73486 -8.125,-14 0,-17.37138 54.44142,-6.17092 49.4375,-42.4375 -1.97728,-14.33064 -14.60964,-22.9642 -28.0625,-29.9375 -0.1318,4.93842 -0.24208,9.78722 -0.375,14.6875 8.82804,4.7865 15.091,10.9397 14.75,21.6875 -0.30432,9.59122 -9.5822,12.18138 -19.625,15 0.91246,-30.97858 1.82934,-62.8012 2.6875,-95.5 -4.91334,2.193 -9.81954,4.26314 -14.375,6.375 0.25708,9.79416 0.54114,19.8337 0.8125,29.8125 -12.2692,-6.1459 -21.6102,-12.25476 -18.875,-22.125 6.6719,-24.07612 79.7555,-24.37212 72.75,-68.5625 -2.2735,-14.34106 -17.54316,-21.36746 -34.4375,-26.4375 -0.1536,5.92278 -0.26668,11.43446 -0.4375,18.0625 9.0984,4.07228 15.26806,8.96196 15.1875,16.25 -0.069,6.24048 -8.68526,11.79114 -19.8125,17.6875 0.93606,-35.87594 1.8285,-70.64562 2.3125,-87.6875 -2.08052,-0.0604 -4.23106,-0.0952 -6.4375,-0.0624 -4.51374,0.067 -9.22622,0.35756 -13.8125,0.9375 0.012,4.2469 0.21994,15.04916 0.5,28.75 -17.91308,-4.9038 -31.879,-10.42718 -26.5,-23.875 7.78914,-19.47328 56.42806,-17.11012 68.4375,-14.0625 12.0094,3.04762 42.67266,2.47082 35,-6.0625 -0.6672,-1.21904 -14.0781,-9.13218 -20.75,-11.875 -2.50198,-1.02858 -5.2087,-1.31604 -8.0625,-1.1875 -4.75632,0.2143 -9.76758,1.49106 -13.9375,2.0625 -1.6466,0.22564 -7.19774,0.0726 -14.6875,0.125 -0.85084,-22.4512 3.29068,-43.08 1,-46.0625 -2.7577,-3.59054 0.31878,-8.35952 -7.6875,-7.75 -6.7553,0.5143 -23.24416,-10.75188 -27.125,-10.75 z m 25.5625,383.5 c -1.12804,0.45698 -2.29952,0.8904 -3.5,1.25 0.6975,15.30886 -0.78438,44.82974 -0.3125,44.9375 3.05918,-4.53674 3.13344,-30.0253 3.8125,-46.1875 z"
         inkscape:connector-curvature="0" />
      <path
         style="opacity:1;fill:#3ba0c3;fill-opacity:1;fill-rule:evenodd;stroke:none;stroke-width:0.88926834;stroke-linecap:round;stroke-linejoin:round;stroke-miterlimit:4;stroke-dasharray:none;stroke-opacity:1"
         d="m 340.58036,289.69176 a 40.017344,40.01677 0 0 0 -28.88181,11.71798 40.017344,40.01677 0 0 0 -2.4329,53.88053 l 25.94023,-25.93984 a 29.103241,29.103107 0 0 0 -16.15472,8.15115 l -5.14713,-5.14419 a 36.379052,36.378882 0 0 1 25.19274,-10.65221 36.379052,36.378882 0 0 1 3.62658,0.12785 l 6.32661,-6.32652 a 43.654861,43.654658 0 0 0 -40.2902,11.70662 l -5.14427,-5.14421 a 50.930673,50.930435 0 0 1 35.27096,-14.91248 50.930673,50.930435 0 0 1 16.10359,2.41008 l 10.59833,-10.59818 a 40.017344,40.01677 0 0 0 -25.00801,-9.27664 z m 29.20016,13.31524 -2.86487,2.86483 -6.00829,6.0082 -5.52228,5.52222 -5.72123,5.72113 -6.15038,6.15032 -7.26736,7.26725 -9.07779,9.07768 -5.18692,5.18682 -8.66284,8.6627 a 40.017344,40.01677 0 0 0 54.97268,-1.4665 40.017344,40.01677 0 0 0 1.48928,-54.99465 z m -3.52424,11.75493 a 50.930673,50.930435 0 0 1 9.38473,7.30704 l -5.14425,5.14421 a 43.654861,43.654658 0 0 0 -9.54107,-7.15072 z m -10.67225,10.67209 a 36.379052,36.378882 0 0 1 9.76845,6.92337 l -5.14429,5.14419 a 29.103241,29.103107 0 0 0 -10.14927,-6.54252 z m -11.33728,11.33713 a 21.827432,21.827331 0 0 1 10.81717,5.87463 l -5.14427,5.14705 a 14.55162,14.551552 0 0 0 -12.64185,-4.05284 z m -4.72366,14.0343 a 7.2758103,7.2757764 0 0 1 5.24943,2.13158 l -5.14427,5.14419 -5.14426,-5.14419 a 7.2758103,7.2757764 0 0 1 5.0391,-2.13158 z"
         id="path55880"
         inkscape:connector-curvature="0" />
    </g>
  </g>
  <text
     xml:space="preserve"
     style="font-style:normal;font-variant:normal;font-weight:bold;font-stretch:normal;font-size:128px;line-height:1.25;font-family:Calibri;-inkscape-font-specification:'Calibri Bold';letter-spacing:0px;word-spacing:0px;fill:#0067a9;fill-opacity:1;stroke:none;text-anchor:middle;text-align:center;"
     x="366.00241"
     y="815.5"
     id="text4518"><tspan
       sodipodi:role="line"
       id="tspan4516"
       x="128.5"
       y="815.5">WikiMed</tspan><tspan
       sodipodi:role="line"
       x="128.5"
       y="975.5"
       id="tspan4520">by Kiwix</tspan></text>
</svg>
