<svg xmlns="http://www.w3.org/2000/svg" height="302.5" width="302.5">
 <path d="m234.53,96.217,38.891-77.782-77.782,38.891c18.98,5.0857,33.805,19.911,38.891,38.891z" fill="#900"/>
 <path d="m94.599,84.4-86.806,5.2104,72.571,47.916c-5.0857-18.98,0.34069-39.232,14.235-53.126z" fill="#069"/>
 <path d="m154.33,211.49,47.916,72.571,5.2104-86.806c-13.894,13.894-34.146,19.321-53.126,14.235z" fill="#396"/>
 <g fill="#484848">
  <path d="m109.29,135.91-14.691-34.585,0,0,4.3082,0,4.0436,0,0,0,7.9085,20.082,0,0,0,0,8.1528-20.578,2.5306,0,2.5171,0,8.0849,20.471,0,0,0,0,7.9402-19.976,0,0,4.0572,0,4.3082,0,0,0-14.847,34.585-1.5243,0-1.5378,0-9.1094-22.032,0,0,0,0-9.0777,22.032-1.5265,0z"/>
  <path d="m152.83,134.68,0-33.364,0,0,4.0232,0,4.0255,0,0,0,0,34.088,0,0-4.0255,0-2.4311,0zm4.0232-47.376c1.3192,0.000093,2.4323,0.45344,3.3391,1.3602,0.90685,0.90698,1.3603,1.9959,1.3603,3.2668-0.00001,1.2771-0.45155,2.3671-1.3546,3.2702-0.90311,0.90314-2.018,1.3547-3.3448,1.3546-1.3343,0.000093-2.4511-0.4496-3.3504-1.349-0.89935-0.8992-1.349-1.9912-1.349-3.2758-0.00001-1.2785,0.45154-2.3693,1.3546-3.2724,0.9031-0.90304,2.018-1.3545,3.3448-1.3546z"/>
  <path d="m176.92,85.124,0,50.285,0,0-4.0232,0-4.0255,0,0,0,0-51.009,0,0,4.0255,0,4.0232,0zm15.367,49.561-16.638-16.285,15.039-17.079,4.3104,0,4.7356,0-14.333,16.909,16.887,17.178-4.9821,0-3.4263,0z"/>
  <path d="m204.79,134.68,0-33.364,0,0,4.0233,0,4.0255,0,0,0,0,34.088,0,0-4.0255,0-2.4311,0zm4.0233-47.376c1.3192,0.000093,2.4322,0.45344,3.3391,1.3602,0.90687,0.90698,1.3603,1.9959,1.3603,3.2668,0,1.2771-0.45149,2.3671-1.3546,3.2702-0.90307,0.90314-2.018,1.3547-3.3448,1.3546-1.3343,0.000093-2.4511-0.4496-3.3504-1.349-0.89936-0.8992-1.349-1.9912-1.349-3.2758,0-1.2785,0.45148-2.3693,1.3546-3.2724,0.90306-0.90304,2.018-1.3545,3.3447-1.3546z"/>
 </g>
 <g fill="#666">
  <path d="m94.599,143.08,0,0,4.2679,0,4.0102,0,0,0,7.9049,19.798,0,0,0,0,7.9382-19.798,0,0,3.9858,0,4.2324,0,0,0-14.688,33.977-1.4997,0-1.5086,0z"/>
  <path d="m147.44,177.12c-5.5084,0.23703-10.128-1.4563-13.469-4.7245-3.3407-3.2681-5.0111-7.4476-5.0111-12.538-0.00001-5.1055,1.6718-9.3001,5.0155-12.584,3.3437-3.2837,7.6364-4.9255,12.878-4.9256,5.2343,0.00009,9.5315,1.6438,12.892,4.9311,3.3599,3.2874,5.0399,7.4802,5.04,12.578-0.00004,5.0848-1.6782,9.2628-5.0344,12.534-3.3563,3.2711-7.5902,4.7289-12.311,4.7289zm-0.0292-6.5708c2.6349-0.23703,4.7037-1.1804,6.5389-3.1126,1.8351-1.9321,2.7527-4.4586,2.7527-7.5794-0.00003-3.1444-0.91797-5.6883-2.7538-7.6316-1.8359-1.9432-4.2009-2.9149-7.095-2.9149-2.9001,0-5.2607,0.96981-7.0817,2.9093-1.8211,1.9396-2.7316,4.4852-2.7316,7.6371-0.00001,3.1371,0.90867,5.6676,2.726,7.5916,1.8174,1.9241,4.2157,3.1004,7.6446,3.1004z"/>
  <path d="m199.59,143.79-22.637,50.064,0,0-4.1813,0-4.4768,0,0,0,11.153-25.268,0,0-12.686-25.508,0,0,4.3723,0,4.0902,0,0,0,8.5181,18.334,0,0,0,0,7.636-18.334,0,0,3.9791,0,4.2324,0z"/>
  <path d="m208.95,177.29c-2.5268,0-4.5497-0.79797-6.0686-2.3939-1.519-1.5959-2.2784-3.6722-2.2784-6.2286,0-2.2661,0.74648-4.2202,2.2394-5.862,1.493-1.6418,3.7059-2.9886,6.6386-4.0401l7.7826-2.8127v-1.5041c0-1.6619-0.38995-2.8534-1.1697-3.5747-0.77985-0.72136-2.0577-1.0821-3.8335-1.0821-1.9863,0-3.7606,0.38002-5.3233,1.1398-1.5626,0.75985-3.4525,2.0299-5.6698,3.8102v-7.456c1.7107-1.7641,3.444-3.0293,5.1999-3.7959,1.7559-0.76641,3.7099-1.1496,5.862-1.1497,4.1606,0.00009,7.3409,1.0376,9.5412,3.1126,2.2002,2.075,3.3002,5.0736,3.3003,8.9958v16.136c-0.00009,0.26221,0.0365,0.42984,0.10995,0.50326,0.074,0.074,0.20621,0.10994,0.39875,0.10994,0.15854,0,0.49698-0.16295,1.0154-0.48884,0.51833-0.3258,1.5093-0.82494,2.9726-1.4974v4.9989c-0.93019,0.93011-2.0729,1.6585-3.428,2.1851-1.3554,0.52648-2.6462,0.78982-3.8725,0.78982-1.4233,0-2.6224-0.43106-3.5969-1.2931-0.72136-0.66059-1.1006-1.2634-1.1375-1.8084-0.16299,0.54203-0.73175,1.062-1.7063,1.5596-2.1447,1.0975-4.4702,1.6463-6.9762,1.6463zm8.3136-7.4717,0-8.978-3.0726,1.4308c-1.8929,0.67388-3.2837,1.486-4.1723,2.4361-0.88872,0.95014-1.3331,2.0614-1.3331,3.3337,0,0.95829,0.35882,1.73,1.0765,2.315,0.71764,0.58511,1.6896,0.87757,2.916,0.87757,1.0398,0,2.0669-0.23103,3.0816-0.69308,0.67241-0.3155,1.4692-0.63765,2.3905-0.96644z"/>
  <path d="m242.48,168.78c0,0.43105,0.58989,0.95426,1.7697,1.5696,1.1797,0.61545,2.7027,1.0676,4.5689,1.3564,4.522,0.72127,7.7908,1.9329,9.8067,3.6347,2.0159,1.7019,3.0238,4.1739,3.0239,7.416-0.00009,3.1816-1.4905,5.6814-4.4713,7.4995s-6.9329,2.7271-11.856,2.7271c-4.6227,0-8.3252-0.97712-11.108-2.9314-2.7824-1.9545-4.1735-4.6187-4.1735-7.9927,0-2.327,0.7458-4.3242,2.2372-5.992,1.4915-1.6677,3.2319-2.606,5.221-2.8149-1.6722-0.80724-2.5083-2.0418-2.5083-3.7037,0-1.804,1.1102-3.3014,3.3304-4.4923,0.53173-0.28881,0.9198-0.33844,1.1642-0.14881-0.86802-0.0356-1.8203-0.52218-2.8571-1.4598-2.3936-2.2187-3.5903-5.0536-3.5903-8.5047,0-3.4644,1.1983-6.3078,3.5947-8.5302s5.4669-3.3337,9.2112-3.3338c0.9435,0.00009,1.8329,0.0702,2.6682,0.21117h13.137v6.5095h-4.5323c0.99078,1.0517,1.5026,3.0031,1.5352,5.8543,0,2.9697-1.2123,5.5817-3.637,7.8359-2.1121,1.9418-4.7714,3.0245-7.9782,3.2483l-2.1461,0.13326c-0.57612,0.0978-1.1072,0.2977-1.5929,0.59981-0.54512,0.34808-0.81764,0.78439-0.81764,1.3086zm3.3637-19.293c-1.5775,0-2.8694,0.50326-3.8758,1.5096-1.0065,1.0065-1.5097,2.3221-1.5097,3.9469,0,1.6323,0.50101,2.9442,1.503,3.9358,1.002,0.99163,2.2961,1.4874,3.8825,1.4874,1.5803,0,2.8734-0.49764,3.8791-1.493,1.0057-0.99528,1.5086-2.3054,1.5086-3.9302,0-1.6174-0.50729-2.9341-1.5219-3.9502-1.0057-1.0042-2.2943-1.5062-3.8658-1.5062zm-8.4182,32.608c0,1.2886,0.71107,2.3576,2.1329,3.207,1.4219,0.84957,3.3659,1.2743,5.832,1.2743,2.6942,0,4.8-0.35885,6.3174-1.0765,1.5175-0.71762,2.2761-1.609,2.2761-2.6738,0-1.1256-0.51646-2.0836-1.5496-2.8738-1.0331-0.79011-2.5754-1.3489-4.6267-1.6762l-0.89986-0.14c-0.82054-0.12146-1.6193-0.20406-2.3961-0.2477-0.7769-0.044-1.3608-0.0309-1.7519,0.0393-1.4944,0.23843-2.6897,0.63465-3.5859,1.1886-1.1656,0.72586-1.7485,1.7189-1.7485,2.9794z"/>
  <path d="m281.76,177.29c-5.144,0-9.3485-1.6326-12.614-4.8978-3.2651-3.2652-4.8977-7.4461-4.8977-12.543,0-5.0847,1.4148-9.2742,4.2446-12.568,2.8297-3.294,6.4848-4.941,10.965-4.9411,4.8684,0.00009,8.6269,1.5389,11.275,4.6168,2.6482,3.0777,3.9724,7.3753,3.9724,12.893v1.8618h-22.306c0.23403,1.9196,0.92571,3.6066,2.0751,5.0612,2.1831,2.0217,4.704,3.0326,7.5627,3.0326,2.0957,0,4.0424-0.36915,5.8398-1.1076,1.7974-0.73832,4.0735-1.9954,6.8285-3.7714v7.7405c-2.2573,1.7048-4.3776,2.9016-6.3608,3.5902-1.9833,0.68878-4.1783,1.0331-6.5852,1.0331zm5.3166-21.217c-0.26521-1.5893-0.84358-2.9889-1.7352-4.199-1.2531-1.7137-3.0979-2.5705-5.5344-2.5705-2.1624,0-3.9427,0.93011-5.3409,2.7905-0.95839,1.2501-1.6012,2.5764-1.9286,3.9791z"/>
 </g>
</svg>